<svg xmlns="http://www.w3.org/2000/svg">
<style>:root svg:not(:target) {display : none}</style>

<svg id="telegram" width="28" height="22" viewBox="0 0 28 22" fill="none" xmlns="http://www.w3.org/2000/svg">
<path fill-rule="evenodd" clip-rule="evenodd" d="M23.4608 3.15291C23.6393 3.30222 23.7255 3.5349 23.6872 3.76448L21.0611 19.5214C21.0244 19.7411 20.8789 19.9273 20.6745 20.0159C20.47 20.1045 20.2346 20.0833 20.0493 19.9597L12.1708 14.7074C12.0177 14.6054 11.9145 14.4437 11.8862 14.2619C11.858 14.08 11.9074 13.8947 12.0223 13.751L14.633 10.4877L10.273 13.3944C10.077 13.525 9.82597 13.5407 9.61524 13.4353L4.36293 10.8092C4.12769 10.6915 3.98535 10.4449 4.0012 10.1824C4.01705 9.91983 4.18804 9.6921 4.43573 9.60364L22.8188 3.03826C23.038 2.95998 23.2822 3.00359 23.4608 3.15291ZM6.32626 10.3228L9.86168 12.0905L17.4231 7.0495C17.6925 6.86994 18.0525 6.91349 18.2712 7.1521C18.49 7.3907 18.5022 7.75314 18.3 8.00591L13.495 14.0121L19.9328 18.3039L22.2083 4.65058L6.32626 10.3228Z" fill="#666666"/>
</svg>

<svg id="vk" width="27" height="17" viewBox="0 0 27 17" fill="none" xmlns="http://www.w3.org/2000/svg">
<path d="M0 2.33876C0 1.48373 0.515103 1.02268 1.54531 0.955621L5.51515 0.980769C5.78158 0.980769 5.95921 1.10651 6.04802 1.35799C6.45655 2.61538 6.91392 3.70094 7.42014 4.61465C7.92637 5.52835 8.58801 6.58038 9.40507 7.77071C9.47611 7.9216 9.59157 7.99704 9.75143 7.99704C9.87576 7.99704 9.97345 7.93836 10.0445 7.82101L10.1244 7.54438L10.1511 3.19379C10.1511 2.89201 10.0756 2.69083 9.92461 2.59024C9.77363 2.48965 9.49388 2.4142 9.08535 2.36391C8.76563 2.31361 8.60577 2.12919 8.60577 1.81065C8.60577 1.74359 8.61465 1.69329 8.63241 1.65976C9.00542 0.57002 10.0711 0.0251479 11.8296 0.0251479L13.3216 0C13.9966 0 14.5561 0.15927 15.0001 0.477811C15.4442 0.796351 15.6662 1.29931 15.6662 1.98669V7.69527C15.7906 7.77909 15.906 7.82101 16.0126 7.82101C16.279 7.82101 16.5099 7.67012 16.7053 7.36834C18.6592 4.78649 19.716 3.05966 19.8759 2.18787C19.8759 2.1711 19.8936 2.12919 19.9291 2.06213C20.0535 1.81065 20.2577 1.5927 20.5419 1.40828C20.8261 1.22387 21.0748 1.09813 21.288 1.03107C21.359 0.997535 21.4389 0.980769 21.5277 0.980769H25.6574L25.9239 1.00592C26.2791 1.00592 26.5544 1.16519 26.7498 1.48373C26.8209 1.58432 26.8697 1.69329 26.8964 1.81065C26.923 1.92801 26.9408 2.04536 26.9496 2.16272C26.9585 2.28008 26.963 2.34714 26.963 2.36391V2.53994C26.8386 3.22732 26.5233 3.9608 26.0171 4.74038C25.5109 5.51997 24.867 6.36243 24.0855 7.26775C23.304 8.17308 22.8155 8.76825 22.6201 9.05326C22.4603 9.25444 22.3803 9.43886 22.3803 9.60651C22.3803 9.74063 22.4514 9.89152 22.5935 10.0592L26.4834 14.6864C26.6965 14.9546 26.8031 15.248 26.8031 15.5666C26.8031 15.9522 26.6432 16.2707 26.3235 16.5222C26.0038 16.7737 25.6219 16.9162 25.1779 16.9497L24.7249 16.9749H20.6752C20.6574 16.9749 20.6219 16.979 20.5686 16.9874C20.5153 16.9958 20.4798 17 20.462 17C20.0712 17 19.7071 16.8407 19.3696 16.5222C19.2453 16.3881 18.4105 15.3989 16.8652 13.5547C16.7764 13.4374 16.652 13.3284 16.4922 13.2278C16.4211 13.4961 16.3279 13.8817 16.2124 14.3846C16.097 14.8876 16.0126 15.248 15.9593 15.466L15.8794 15.8935C15.7018 16.4803 15.3287 16.8323 14.7604 16.9497L14.3874 16.9749H11.7763C10.3021 16.9749 8.83224 16.3378 7.36686 15.0636C5.90148 13.7894 4.58264 12.1423 3.41034 10.122C2.23803 8.10182 1.14566 5.75049 0.133216 3.06805C0.0444054 2.8501 0 2.607 0 2.33876ZM16.0126 8.85207C15.6396 8.85207 15.3021 8.75567 15.0001 8.56287C14.6982 8.37007 14.5472 8.10602 14.5472 7.77071V1.98669C14.5472 1.65138 14.4584 1.41248 14.2808 1.26997C14.1032 1.12747 13.7923 1.05621 13.3483 1.05621L11.8296 1.10651C11.0658 1.10651 10.4886 1.23225 10.0978 1.48373C10.8793 1.8358 11.2701 2.40582 11.2701 3.19379V7.61982C11.2346 8.03895 11.0569 8.38683 10.7372 8.66346C10.4175 8.94009 10.0623 9.0784 9.6715 9.0784C9.13863 9.0784 8.7301 8.83531 8.44591 8.34911C7.06046 6.37081 6.03025 4.4931 5.35529 2.71598L5.1155 2.06213L1.57195 2.03698C1.34104 2.03698 1.21227 2.04956 1.18562 2.0747C1.15898 2.09985 1.14566 2.1711 1.14566 2.28846C1.14566 2.43935 1.16342 2.59862 1.19895 2.76627L1.75845 4.17456C3.25048 7.81262 4.87127 10.6795 6.62085 12.7751C8.37042 14.8708 10.0889 15.9186 11.7763 15.9186H14.4406C14.5472 15.9186 14.6271 15.8893 14.6804 15.8306C14.7337 15.7719 14.7781 15.6588 14.8136 15.4911L14.8669 15.2396L15.3732 13.0266C15.5152 12.7249 15.6396 12.5237 15.7462 12.4231C15.9415 12.2387 16.1725 12.1465 16.4389 12.1465C16.8652 12.1465 17.3003 12.3895 17.7444 12.8757L20.0091 15.5917C20.1512 15.8097 20.3022 15.9186 20.462 15.9186H24.8581C25.391 15.9186 25.6574 15.7929 25.6574 15.5414C25.6574 15.4576 25.6308 15.3738 25.5775 15.2899L21.7142 10.7382C21.4123 10.3861 21.2613 10.0089 21.2613 9.60651C21.2613 9.20414 21.4034 8.81854 21.6876 8.4497C21.9185 8.1144 22.367 7.55695 23.0331 6.77737C23.6992 5.99778 24.2809 5.26849 24.7782 4.5895C25.2756 3.9105 25.6042 3.29438 25.764 2.74112L25.8439 2.4142C25.8262 2.38067 25.8173 2.32618 25.8173 2.25074C25.8173 2.1753 25.8084 2.11243 25.7907 2.06213H21.6077C21.3412 2.16272 21.1281 2.31361 20.9682 2.51479L20.8084 2.9926C20.3643 4.14941 19.2009 5.93491 17.3181 8.34911C16.9451 8.68442 16.5099 8.85207 16.0126 8.85207Z" fill="#666666"/>
</svg>

<svg id="youtube" width="28" height="22" viewBox="0 0 28 22" fill="none" xmlns="http://www.w3.org/2000/svg">
<path d="M17.8509 10.7927L12.6145 7.30184C12.5159 7.23691 12.4016 7.19985 12.2837 7.19459C12.1657 7.18934 12.0486 7.21608 11.9446 7.27198C11.8406 7.32789 11.7537 7.41087 11.693 7.51215C11.6324 7.61343 11.6002 7.72924 11.6 7.84729V14.8291C11.6001 14.9481 11.6327 15.0648 11.6942 15.1667C11.7557 15.2686 11.8438 15.3518 11.9491 15.4073C12.0524 15.4631 12.1691 15.4895 12.2864 15.4837C12.4037 15.478 12.5172 15.4402 12.6145 15.3746L17.8509 11.8837C17.9409 11.8239 18.0148 11.7429 18.0658 11.6477C18.1169 11.5526 18.1436 11.4462 18.1436 11.3382C18.1436 11.2302 18.1169 11.1239 18.0658 11.0287C18.0148 10.9335 17.9409 10.8525 17.8509 10.7927ZM12.9091 13.6073V9.06911L16.3127 11.3382L12.9091 13.6073ZM25.3891 5.04366C25.2942 4.67547 25.1131 4.33511 24.8609 4.05061C24.6086 3.76611 24.2924 3.54561 23.9382 3.40729C20.2182 1.9782 14.2509 2.00002 14 2.00002C13.7491 2.00002 7.78182 1.9782 4.06182 3.40729C3.70764 3.54561 3.3914 3.76611 3.13914 4.05061C2.88689 4.33511 2.70584 4.67547 2.61091 5.04366C2.32727 6.11275 2 8.07638 2 11.3382C2 14.6 2.32727 16.5637 2.61091 17.6327C2.70584 18.0009 2.88689 18.3413 3.13914 18.6258C3.3914 18.9103 3.70764 19.1308 4.06182 19.2691C7.78182 20.6982 13.7491 20.6764 14 20.6764H14.0764C14.8291 20.6764 20.3927 20.6327 23.9382 19.2691C24.2924 19.1308 24.6086 18.9103 24.8609 18.6258C25.1131 18.3413 25.2942 18.0009 25.3891 17.6327C25.6727 16.5637 26 14.6 26 11.3382C26 8.07638 25.6727 6.11275 25.3891 5.04366ZM24.1236 17.3055C24.0807 17.472 23.999 17.6259 23.8853 17.7548C23.7715 17.8838 23.6289 17.984 23.4691 18.0473C19.9782 19.3891 14.0655 19.3673 14 19.3673C13.9345 19.3673 8.02182 19.3891 4.53091 18.0473C4.37107 17.984 4.22846 17.8838 4.11471 17.7548C4.00096 17.6259 3.91929 17.472 3.87636 17.3055C3.61455 16.3018 3.30909 14.4582 3.30909 11.3382C3.30909 8.2182 3.61455 6.37457 3.87636 5.37093C3.91929 5.20445 4.00096 5.05047 4.11471 4.92156C4.22846 4.79264 4.37107 4.69243 4.53091 4.62911C8.02182 3.28729 13.9345 3.30911 14 3.30911C14.0655 3.30911 19.9782 3.28729 23.4691 4.62911C23.6289 4.69243 23.7715 4.79264 23.8853 4.92156C23.999 5.05047 24.0807 5.20445 24.1236 5.37093C24.3855 6.37457 24.6909 8.2182 24.6909 11.3382C24.6909 14.4582 24.3855 16.3018 24.1236 17.3055Z" fill="#666666"/>
</svg>

<svg id="telephone-form" width="16" height="16" viewBox="0 0 16 16" fill="none" xmlns="http://www.w3.org/2000/svg">
<path d="M7.00224 8H15.5041M15.5041 8L13.0036 5.5M15.5041 8L13.0036 10.5M5.50191 0.5V5.5H2.50124V10.5H5.50191V15.5H3.00135C1.50102 15.5 0.500793 14.5 0.500793 13V3C0.500793 1.5 1.50102 0.5 3.00135 0.5H5.50191Z" stroke="black" stroke-linecap="round" stroke-linejoin="round"/>
</svg>

<svg id="telephone-form--focus" width="16" height="16" viewBox="0 0 16 16" fill="none" xmlns="http://www.w3.org/2000/svg">
<path d="M7.00224 8H15.5041M15.5041 8L13.0036 5.5M15.5041 8L13.0036 10.5M5.50191 0.5V5.5H2.50124V10.5H5.50191V15.5H3.00135C1.50102 15.5 0.500793 14.5 0.500793 13V3C0.500793 1.5 1.50102 0.5 3.00135 0.5H5.50191Z" stroke="68b738" stroke-linecap="round" stroke-linejoin="round"/>
</svg>

<svg id="telephone-form--error" width="16" height="16" viewBox="0 0 16 16" fill="none" xmlns="http://www.w3.org/2000/svg">
<path d="M7.00224 8H15.5041M15.5041 8L13.0036 5.5M15.5041 8L13.0036 10.5M5.50191 0.5V5.5H2.50124V10.5H5.50191V15.5H3.00135C1.50102 15.5 0.500793 14.5 0.500793 13V3C0.500793 1.5 1.50102 0.5 3.00135 0.5H5.50191Z" stroke="ff8282" stroke-linecap="round" stroke-linejoin="round"/>
</svg>

<svg id="html-academy" width="27" height="34" viewBox="0 0 27 34" fill="none" xmlns="http://www.w3.org/2000/svg">
<path d="M13.6426 0.0157537L13.5 0L0 1.40733V26.0129L13.5 34L27 26.0129V1.40733L13.6426 0.0157537ZM25.2344 25.0151L13.5 31.9573L1.76561 25.0151V14.9293L13.4507 21.8451L13.4701 23.0984L5.45351 18.3548L5.44295 19.5801L13.4894 24.3885L13.5088 25.675L5.46408 20.9174L5.45351 22.1427L13.5 26.9511L21.6239 22.1182V20.8929V16.909L25.2432 14.7595L25.2344 25.0151ZM25.2344 13.4519L22.0147 15.3319L20.5325 16.2071L13.4666 12.0201L13.456 13.2454L19.4957 16.818L19.4429 16.8495L19.3126 16.9247L18.4536 17.4166L13.4666 14.4689L13.456 15.6942L17.3921 18.0222L16.4591 18.6314L16.438 18.6436L13.4666 16.902L13.456 18.1273L15.4029 19.2615L13.4155 20.4483L1.7973 13.5762L13.4349 6.61831L25.2344 13.4519ZM25.2344 12.2266L13.4401 5.31075L1.76561 12.2196V2.9897L13.5 1.76442L25.2344 2.9897V12.2266Z" fill="#666666"/>
</svg>

<svg id="email-form" width="18" height="14" viewBox="0 0 18 14" fill="none" xmlns="http://www.w3.org/2000/svg">
<path d="M0.500336 5.5V13.5H17.5041V5.5M0.500336 0.5H17.5041V2.5L9.00223 8.5L0.500336 2.5V0.5Z" stroke="black" stroke-linecap="round" stroke-linejoin="round"/>
</svg>

<svg id="email-form--focus" width="18" height="14" viewBox="0 0 18 14" fill="none" xmlns="http://www.w3.org/2000/svg">
<path d="M0.500336 5.5V13.5H17.5041V5.5M0.500336 0.5H17.5041V2.5L9.00223 8.5L0.500336 2.5V0.5Z" stroke="#68b738" stroke-linecap="round" stroke-linejoin="round"/>
</svg>

<svg id="email-form--error" width="18" height="14" viewBox="0 0 18 14" fill="none" xmlns="http://www.w3.org/2000/svg">
<path d="M0.500336 5.5V13.5H17.5041V5.5M0.500336 0.5H17.5041V2.5L9.00223 8.5L0.500336 2.5V0.5Z" stroke="#ff8282" stroke-linecap="round" stroke-linejoin="round"/>
</svg>

<svg id="slider-button-mobile" width="40" height="256" viewBox="0 0 40 256" fill="none" xmlns="http://www.w3.org/2000/svg">
<rect x="18" width="4" height="256" rx="2" fill="#666666"/>
<rect x="1" y="109" width="38" height="38" rx="19" fill="white"/>
<rect x="1" y="109" width="38" height="38" rx="19" stroke="#666666" stroke-width="2"/>
<path d="M16 119L8 128L16 137V119Z" fill="#666666"/>
<path d="M32 128L24 119V137L32 128Z" fill="#666666"/>
</svg>

<svg id="slider-button-mobile--focus" width="40" height="256" viewBox="0 0 40 256" fill="none" xmlns="http://www.w3.org/2000/svg">
<rect x="18" width="4" height="256" rx="2" fill="##68b738"/>
<rect x="1" y="109" width="38" height="38" rx="19" fill="white"/>
<rect x="1" y="109" width="38" height="38" rx="19" stroke="#68b738" stroke-width="2"/>
<path d="M16 119L8 128L16 137V119Z" fill="##68b738"/>
<path d="M32 128L24 119V137L32 128Z" fill="##68b738"/>
</svg>

<svg id="slider-button-tablet" width="40" height="512" viewBox="0 0 40 512" fill="none" xmlns="http://www.w3.org/2000/svg">
<rect x="18" width="4" height="512" rx="2" fill="#666666"/>
<rect x="1" y="237" width="38" height="38" rx="19" fill="white"/>
<rect x="1" y="237" width="38" height="38" rx="19" stroke="#666666" stroke-width="2"/>
<path d="M16 247L8 256L16 265V247Z" fill="#666666"/>
<path d="M32 256L24 247V265L32 256Z" fill="#666666"/>
</svg>

<svg id="slider-button-tablet--focus" width="40" height="512" viewBox="0 0 40 512" fill="none" xmlns="http://www.w3.org/2000/svg">
<rect x="18" width="4" height="512" rx="2" fill="#68b738"/>
<rect x="1" y="237" width="38" height="38" rx="19" fill="white"/>
<rect x="1" y="237" width="38" height="38" rx="19" stroke="#68b738" stroke-width="2"/>
<path d="M16 247L8 256L16 265V247Z" fill="#68b738"/>
<path d="M32 256L24 247V265L32 256Z" fill="#68b738"/>
</svg>

<svg id="arrow-catalog" width="24" height="12" viewBox="0 0 24 12" fill="none" xmlns="http://www.w3.org/2000/svg">
<line y1="6" x2="18" y2="6" stroke="black" stroke-width="2"/>
<path d="M24 6L17.25 11.1962L17.25 0.803848L24 6Z" fill="black"/>
</svg>

<svg id="arrow-catalog-hover" width="32" height="12" viewBox="0 0 32 12" fill="none" xmlns="http://www.w3.org/2000/svg">
<line y1="6" x2="26" y2="6" stroke="black" stroke-width="2"/>
<path d="M32 6L25.25 11.1962L25.25 0.803848L32 6Z" fill="black"/>
</svg>

<svg id="plus-catalog-mobile" width="30" height="30" viewBox="0 0 30 30" fill="none" xmlns="http://www.w3.org/2000/svg">
<line x1="15" x2="15" y2="30" stroke="#d3d3d3" stroke-width="2"/>
<line x1="30" y1="15" y2="15" stroke="#d3d3d3" stroke-width="2"/>
</svg>

<svg id="plus-catalog-tablet" width="60" height="60" viewBox="0 0 60 60" fill="none" xmlns="http://www.w3.org/2000/svg">
<line x1="31" x2="31" y2="60" stroke="#d3d3d3" stroke-width="2"/>
<line x1="60" y1="31" y2="31" stroke="#d3d3d3" stroke-width="2"/>
</svg>

<svg id="gift-mobile" width="78" height="81" viewBox="0 0 78 81" fill="none" xmlns="http://www.w3.org/2000/svg">
<path d="M64.0156 35.6325H14.031C12.2766 35.6325 10.8494 34.2144 10.8494 32.4709V22.9989C10.8494 21.2554 12.2766 19.8367 14.031 19.8367H64.0149C65.7687 19.8367 67.1953 21.2554 67.1953 22.9989V32.4715C67.1959 34.2144 65.7693 35.6325 64.0156 35.6325ZM14.031 22.2598C13.6276 22.2598 13.2869 22.5984 13.2869 22.9989V32.4715C13.2869 32.8786 13.6208 33.21 14.031 33.21H64.0149C64.4244 33.21 64.7578 32.8786 64.7578 32.4715V22.9989C64.7578 22.5978 64.4171 22.2598 64.0149 22.2598H14.031Z" fill="white"/>
<path d="M57.0447 68.0821H20.999C17.6218 68.0821 14.8741 65.3512 14.8741 61.9933V34.421C14.8741 33.7523 15.4201 33.2095 16.0929 33.2095C16.7656 33.2095 17.3116 33.7523 17.3116 34.421V61.9933C17.3116 64.0148 18.9661 65.6589 20.999 65.6589H57.0447C59.077 65.6589 60.7308 64.0148 60.7308 61.9933V34.421C60.7308 33.7523 61.2768 33.2095 61.9496 33.2095C62.6223 33.2095 63.1683 33.7523 63.1683 34.421V61.9933C63.1683 65.3512 60.4213 68.0821 57.0447 68.0821Z" fill="white"/>
<path d="M39.0225 68.0821C38.3498 68.0821 37.8038 67.5399 37.8038 66.8705V34.421C37.8038 33.7523 38.3498 33.2095 39.0225 33.2095C39.6953 33.2095 40.2413 33.7523 40.2413 34.421V66.8699C40.2413 67.5399 39.6959 68.0821 39.0225 68.0821Z" fill="white"/>
<path d="M23.8113 22.2556C19.9966 20.2008 18.5731 15.4442 20.6383 11.6513C22.7022 7.86033 27.4864 6.44461 31.303 8.4958C37.117 11.6265 40.2565 20.3607 40.3869 20.7308L38.0877 21.5347C38.0585 21.4523 35.1256 13.31 30.1433 10.627C27.5078 9.21063 24.2062 10.1884 22.7821 12.8047C21.3567 15.4236 22.339 18.7069 24.9734 20.1251L23.8113 22.2556Z" fill="white"/>
<path d="M54.2313 22.2556L53.071 20.1244C54.3477 19.4369 55.2782 18.2974 55.6926 16.9156C56.1063 15.5332 55.9534 14.0732 55.2617 12.8053C54.5719 11.5362 53.4263 10.6118 52.0363 10.2005C50.6457 9.78913 49.1783 9.94058 47.9023 10.6269C42.9201 13.3093 39.9871 21.4517 39.9579 21.5341L37.6587 20.7302C37.7891 20.3601 40.928 11.6259 46.7421 8.49578C48.5897 7.50109 50.7182 7.28179 52.7316 7.87788C54.7468 8.47337 56.4061 9.81397 57.4061 11.6513C58.4073 13.4881 58.6285 15.6029 58.0289 17.6062C57.4287 19.6089 56.0801 21.2597 54.2313 22.2556Z" fill="white"/>
<path d="M61.9496 51.8567H16.0929C15.4201 51.8567 14.8741 51.3142 14.8741 50.6456C14.8741 49.9771 15.4201 49.4346 16.0929 49.4346H61.9496C62.6223 49.4346 63.1683 49.9771 63.1683 50.6456C63.1683 51.3142 62.6229 51.8567 61.9496 51.8567Z" fill="white"/>
</svg>

<svg id="gift-tablet" width="80" height="83" viewBox="0 0 80 83" fill="none" xmlns="http://www.w3.org/2000/svg">
<path d="M65.657 35.8291H14.3907C12.5913 35.8291 11.1276 34.366 11.1276 32.5672V22.7947C11.1276 20.996 12.5913 19.5322 14.3907 19.5322H65.6563C67.4551 19.5322 68.9182 20.996 68.9182 22.7947V32.5678C68.9188 34.366 67.4557 35.8291 65.657 35.8291ZM14.3907 22.0322C13.977 22.0322 13.6276 22.3816 13.6276 22.7947V32.5678C13.6276 32.9878 13.9701 33.3297 14.3907 33.3297H65.6563C66.0763 33.3297 66.4182 32.9878 66.4182 32.5678V22.7947C66.4182 22.381 66.0688 22.0322 65.6563 22.0322H14.3907Z" fill="white"/>
<path d="M58.5074 69.3078H21.5374C18.0736 69.3078 15.2555 66.4904 15.2555 63.026V34.5791C15.2555 33.8891 15.8155 33.3291 16.5055 33.3291C17.1955 33.3291 17.7555 33.8891 17.7555 34.5791V63.026C17.7555 65.1116 19.4524 66.8078 21.5374 66.8078H58.5074C60.5918 66.8078 62.288 65.1116 62.288 63.026V34.5791C62.288 33.8891 62.848 33.3291 63.538 33.3291C64.228 33.3291 64.788 33.8891 64.788 34.5791V63.026C64.788 66.4904 61.9705 69.3078 58.5074 69.3078Z" fill="white"/>
<path d="M40.0231 69.3078C39.3331 69.3078 38.7731 68.7485 38.7731 68.0578V34.5791C38.7731 33.8891 39.3331 33.3291 40.0231 33.3291C40.7131 33.3291 41.2731 33.8891 41.2731 34.5791V68.0572C41.2731 68.7485 40.7137 69.3078 40.0231 69.3078Z" fill="white"/>
<path d="M24.4219 22.0278C20.5094 19.9078 19.0494 15.0003 21.1675 11.0872C23.2844 7.17592 28.1912 5.7153 32.1056 7.83155C38.0687 11.0615 41.2887 20.0728 41.4225 20.4547L39.0644 21.284C39.0344 21.199 36.0262 12.7984 30.9162 10.0303C28.2131 8.56905 24.8269 9.5778 23.3662 12.2772C21.9044 14.979 22.9119 18.3665 25.6137 19.8297L24.4219 22.0278Z" fill="white"/>
<path d="M55.6218 22.0277L54.4318 19.829C55.7412 19.1196 56.6956 17.944 57.1206 16.5184C57.545 15.0921 57.3881 13.5859 56.6787 12.2777C55.9712 10.9684 54.7962 10.0146 53.3706 9.59023C51.9443 9.16585 50.4393 9.3221 49.1306 10.0302C44.0206 12.7977 41.0125 21.1984 40.9825 21.2834L38.6243 20.454C38.7581 20.0721 41.9775 11.0609 47.9406 7.83148C49.8356 6.80523 52.0187 6.57898 54.0837 7.19398C56.1506 7.80835 57.8525 9.19148 58.8781 11.0871C59.905 12.9821 60.1318 15.164 59.5168 17.2309C58.9012 19.2971 57.5181 21.0002 55.6218 22.0277Z" fill="white"/>
<path d="M63.538 52.5688H16.5055C15.8155 52.5688 15.2555 52.0088 15.2555 51.3188C15.2555 50.6288 15.8155 50.0688 16.5055 50.0688H63.538C64.228 50.0688 64.788 50.6288 64.788 51.3188C64.788 52.0088 64.2287 52.5688 63.538 52.5688Z" fill="white"/>
</svg>


</svg>
